<?xml version="1.0" encoding="UTF-8"?>
<svg version="1.1" xmlns="http://www.w3.org/2000/svg" width="32" height="32">
<path d="M0 0 C3.92061103 2.19278684 6.97809862 4.95619724 9 9 C10.34009135 20.6039728 10.34009135 20.6039728 7.5078125 25.66796875 C4.31531972 29.30423128 1.94759708 31.77508065 -2.9765625 32.34375 C-14.03729021 32.81744284 -14.03729021 32.81744284 -18.8125 28.625 C-23.61624433 23.64713274 -23.50615879 19.37124985 -23.4921875 12.57421875 C-22.75174943 7.19722801 -20.18398445 4.28471177 -16 1 C-11.26503433 -1.36748284 -5.10642777 -0.70318022 0 0 Z " fill="#2B837E" transform="translate(23,0)"/>
<path d="M0 0 C3.92061103 2.19278684 6.97809862 4.95619724 9 9 C10.34009135 20.6039728 10.34009135 20.6039728 7.5078125 25.66796875 C4.31531972 29.30423128 1.94759708 31.77508065 -2.9765625 32.34375 C-14.03729021 32.81744284 -14.03729021 32.81744284 -18.8125 28.625 C-23.61624433 23.64713274 -23.50615879 19.37124985 -23.4921875 12.57421875 C-22.75174943 7.19722801 -20.18398445 4.28471177 -16 1 C-11.26503433 -1.36748284 -5.10642777 -0.70318022 0 0 Z M-17 4 C-16.67 5.32 -16.34 6.64 -16 8 C-16.99 8.33 -17.98 8.66 -19 9 C-19.6212119 16.45454283 -18.50657355 21.85318128 -13.609375 27.64453125 C-11.1468368 29.99690326 -9.39791563 30.96684036 -6 31.25 C-0.78074639 29.075311 2.01875302 25.09630037 4.375 20.0625 C5.15042809 16.26290234 5.13359493 12.87425303 5 9 C4.01 8.67 3.02 8.34 2 8 C2.33 7.01 2.66 6.02 3 5 C1.80761719 5.01160156 0.61523438 5.02320313 -0.61328125 5.03515625 C-2.17968594 5.04453592 -3.74609231 5.05363593 -5.3125 5.0625 C-6.09818359 5.07087891 -6.88386719 5.07925781 -7.69335938 5.08789062 C-8.45068359 5.09111328 -9.20800781 5.09433594 -9.98828125 5.09765625 C-11.03302612 5.10551147 -11.03302612 5.10551147 -12.09887695 5.11352539 C-14 5 -14 5 -17 4 Z " fill="#071D33" transform="translate(23,0)"/>
<path d="M0 0 C1.2684375 0.2475 1.2684375 0.2475 2.5625 0.5 C6.09138856 1.01329288 9.43932689 1.07121346 13 1 C13 1.99 13 2.98 13 4 C14.32 3.67 15.64 3.34 17 3 C15.875 4.5 15.875 4.5 14 6 C10.8125 6.1875 10.8125 6.1875 8 6 C7.67 6.66 7.34 7.32 7 8 C6.34 8 5.68 8 5 8 C2.4345406 10.5654594 2.45953913 12.47686668 2 16 C0.68 15.34 -0.64 14.68 -2 14 C-2 11.03 -2 8.06 -2 5 C-1.01 4.67 -0.02 4.34 1 4 C0.67 2.68 0.34 1.36 0 0 Z " fill="#21726E" transform="translate(6,4)"/>
<path d="M0 0 C1 3 1 3 1 5 C1.66 5 2.32 5 3 5 C3 4.34 3 3.68 3 3 C3.66 3 4.32 3 5 3 C4.34 4.32 3.68 5.64 3 7 C3.99 7.66 4.98 8.32 6 9 C6.1875 12.125 6.1875 12.125 6 15 C0.25 16.125 0.25 16.125 -2 15 C-2 12.36 -2 9.72 -2 7 C-2.33 8.98 -2.66 10.96 -3 13 C-3.33 12.34 -3.66 11.68 -4 11 C-4.66 10.67 -5.32 10.34 -6 10 C-5.67 7.69 -5.34 5.38 -5 3 C-4.01 3 -3.02 3 -2 3 C-2.66 2.34 -3.32 1.68 -4 1 C-2.68 0.67 -1.36 0.34 0 0 Z " fill="#247475" transform="translate(14,13)"/>
<path d="M0 0 C0.66 1.32 1.32 2.64 2 4 C2.99 4.66 3.98 5.32 5 6 C4.67 6.66 4.34 7.32 4 8 C3.01 7.34 2.02 6.68 1 6 C0.95758277 8.33294775 0.95907063 10.66702567 1 13 C1.33 13.33 1.66 13.66 2 14 C2.33 12.35 2.66 10.7 3 9 C3.66 9.66 4.32 10.32 5 11 C4.625 14.125 4.625 14.125 4 17 C2.1875 16.8125 2.1875 16.8125 0 16 C-2.62334906 12.62712264 -3.36372697 10.24348127 -3 6 C-2.01 7.485 -2.01 7.485 -1 9 C-0.67 6.03 -0.34 3.06 0 0 Z " fill="#33928C" transform="translate(8,10)"/>
<path d="M0 0 C1.98 0.99 1.98 0.99 4 2 C4.14285714 10.57142857 4.14285714 10.57142857 3 14 C2.01 14 1.02 14 0 14 C0 9.38 0 4.76 0 0 Z " fill="#227772" transform="translate(24,7)"/>
<path d="M0 0 C0.45375 0.495 0.9075 0.99 1.375 1.5 C2.87635519 3.22609337 2.87635519 3.22609337 5 3 C5.33 2.34 5.66 1.68 6 1 C6.66 1 7.32 1 8 1 C8 2.98 8 4.96 8 7 C2.25 8.125 2.25 8.125 0 7 C0 4.69 0 2.38 0 0 Z " fill="#1A6666" transform="translate(12,21)"/>
<path d="M0 0 C-0.33 0.33 -0.66 0.66 -1 1 C-1.23527773 3.34987262 -1.41386417 5.70556039 -1.5625 8.0625 C-1.64628906 9.35285156 -1.73007812 10.64320312 -1.81640625 11.97265625 C-1.87699219 12.97167969 -1.93757813 13.97070312 -2 15 C-1.34 15 -0.68 15 0 15 C-0.33 15.99 -0.66 16.98 -1 18 C-1.66 17.67 -2.32 17.34 -3 17 C-3 14.69 -3 12.38 -3 10 C-3.66 9.67 -4.32 9.34 -5 9 C-4.34 7.35 -3.68 5.7 -3 4 C-3.99 3.67 -4.98 3.34 -6 3 C-5.67 2.67 -5.34 2.34 -5 2 C-5.66 2 -6.32 2 -7 2 C-7 1.34 -7 0.68 -7 0 C-3.98968256 -0.93423645 -3.13349732 -1.04449911 0 0 Z " fill="#36958D" transform="translate(26,6)"/>
<path d="M0 0 C0.66 0.33 1.32 0.66 2 1 C2 4.3 2 7.6 2 11 C1.67 11 1.34 11 1 11 C1 9.35 1 7.7 1 6 C-0.65 5.67 -2.3 5.34 -4 5 C-2.68 3.35 -1.36 1.7 0 0 Z " fill="#37928D" transform="translate(19,16)"/>
<path d="M0 0 C0.66 0 1.32 0 2 0 C2.33 2.64 2.66 5.28 3 8 C2.01 8.66 1.02 9.32 0 10 C-0.19412181 8.52168779 -0.38012131 7.04230684 -0.5625 5.5625 C-0.66691406 4.73878906 -0.77132813 3.91507813 -0.87890625 3.06640625 C-0.91886719 2.38449219 -0.95882813 1.70257812 -1 1 C-0.67 0.67 -0.34 0.34 0 0 Z " fill="#1A6B69" transform="translate(21,16)"/>
<path d="M0 0 C0.99 0.33 1.98 0.66 3 1 C2.67 3.97 2.34 6.94 2 10 C1.67 9.34 1.34 8.68 1 8 C0.34 7.67 -0.32 7.34 -1 7 C-0.67 4.69 -0.34 2.38 0 0 Z " fill="#196868" transform="translate(9,16)"/>
<path d="M0 0 C0.598125 0.20625 1.19625 0.4125 1.8125 0.625 C0.8225 0.955 -0.1675 1.285 -1.1875 1.625 C-1.5175 2.615 -1.8475 3.605 -2.1875 4.625 C-3.5075 4.625 -4.8275 4.625 -6.1875 4.625 C-5.03076352 1.15479057 -3.91311293 -0.67081936 0 0 Z " fill="#329089" transform="translate(16.1875,9.375)"/>
<path d="M0 0 C-0.66 1.32 -1.32 2.64 -2 4 C-3.32 3.67 -4.64 3.34 -6 3 C-5.67 2.67 -5.34 2.34 -5 2 C-5.66 2 -6.32 2 -7 2 C-7 1.34 -7 0.68 -7 0 C-3.98968256 -0.93423645 -3.13349732 -1.04449911 0 0 Z " fill="#348D86" transform="translate(26,6)"/>
<path d="M0 0 C2.64 0.66 5.28 1.32 8 2 C7.67 2.99 7.34 3.98 7 5 C4.0625 4.1875 4.0625 4.1875 1 3 C0.67 2.01 0.34 1.02 0 0 Z " fill="#318882" transform="translate(6,4)"/>
</svg>
